<?xml version="1.0" encoding="UTF-8"?>
<svg width="152px" height="149px" viewBox="0 0 152 149" version="1.1" xmlns="http://www.w3.org/2000/svg" xmlns:xlink="http://www.w3.org/1999/xlink">
    <!-- Generator: Sketch 45.2 (43514) - http://www.bohemiancoding.com/sketch -->
    <title>calendar</title>
    <desc>Created with Sketch.</desc>
    <defs></defs>
    <g id="Page-1" stroke="none" stroke-width="1" fill="none" fill-rule="evenodd">
        <g id="me" transform="translate(-34.000000, -178.000000)" fill-rule="nonzero" fill="#4A4A4A">
            <g id="container" transform="translate(34.000000, 177.000000)">
                <g id="calendar" transform="translate(0.870907, 0.870907)">
                    <path d="M111.725239,10.6631543 C110.514203,4.72777541 105.255962,0.245639786 98.966388,0.245639786 C97.5261666,0.245639786 96.3620093,1.40979703 96.3620093,2.85001842 C96.3620093,4.2902398 97.5261666,5.45439705 98.966388,5.45439705 C103.27403,5.45439705 106.779524,8.95989069 106.779524,13.2675329 C106.779524,17.5751752 103.27403,21.0806688 98.966388,21.0806688 C97.5261666,21.0806688 96.3620093,22.2448261 96.3620093,23.6850475 C96.3620093,25.1252688 97.5261666,26.2894261 98.966388,26.2894261 C105.253358,26.2894261 110.514203,21.8072905 111.725239,15.8719116 L145.845203,15.8719116 L145.845203,39.3113193 L5.20875726,39.3113193 L5.20875726,15.8719116 L41.6700581,15.8719116 L49.483194,15.8719116 C50.9234154,15.8719116 52.0875726,14.7077543 52.0875726,13.2675329 C52.0875726,11.8273116 50.9234154,10.6631543 49.483194,10.6631543 L44.7536424,10.6631543 C45.8318551,7.63686634 48.6966716,5.45439705 52.0875726,5.45439705 C56.3952149,5.45439705 59.9007085,8.95989069 59.9007085,13.2675329 C59.9007085,17.5751752 56.3952149,21.0806688 52.0875726,21.0806688 C50.6473512,21.0806688 49.483194,22.2448261 49.483194,23.6850475 C49.483194,25.1252688 50.6473512,26.2894261 52.0875726,26.2894261 C59.2678445,26.2894261 65.1094658,20.4478048 65.1094658,13.2675329 C65.1094658,6.08726106 59.2678445,0.245639786 52.0875726,0.245639786 C45.8006026,0.245639786 40.5397578,4.72777541 39.3287217,10.6631543 L0,10.6631543 L0,44.5200765 L0,148.695222 L151.053961,148.695222 L151.053961,44.5200765 L151.053961,10.6631543 L111.725239,10.6631543 Z M145.845203,143.486464 L5.20875726,143.486464 L5.20875726,44.5200765 L145.845203,44.5200765 L145.845203,143.486464 Z" id="Shape"></path>
                    <path d="M67.7138444,5.45439705 C72.0214867,5.45439705 75.5269803,8.95989069 75.5269803,13.2675329 C75.5269803,17.5751752 72.0214867,21.0806688 67.7138444,21.0806688 C66.273623,21.0806688 65.1094658,22.2448261 65.1094658,23.6850475 C65.1094658,25.1252688 66.273623,26.2894261 67.7138444,26.2894261 C74.8941163,26.2894261 80.7357376,20.4478048 80.7357376,13.2675329 C80.7357376,6.08726106 74.8941163,0.245639786 67.7138444,0.245639786 C66.273623,0.245639786 65.1094658,1.40979703 65.1094658,2.85001842 C65.1094658,4.2902398 66.273623,5.45439705 67.7138444,5.45439705 Z" id="Shape"></path>
                    <path d="M83.3401162,5.45439705 C87.6477584,5.45439705 91.1532521,8.95989069 91.1532521,13.2675329 C91.1532521,17.5751752 87.6477584,21.0806688 83.3401162,21.0806688 C81.8998948,21.0806688 80.7357376,22.2448261 80.7357376,23.6850475 C80.7357376,25.1252688 81.8998948,26.2894261 83.3401162,26.2894261 C90.5203881,26.2894261 96.3620093,20.4478048 96.3620093,13.2675329 C96.3620093,6.08726106 90.5203881,0.245639786 83.3401162,0.245639786 C81.8998948,0.245639786 80.7357376,1.40979703 80.7357376,2.85001842 C80.7357376,4.2902398 81.8998948,5.45439705 83.3401162,5.45439705 Z" id="Shape"></path>
                    <circle id="Oval" cx="57.2963299" cy="62.7507269" r="2.60437863"></circle>
                    <circle id="Oval" cx="75.5269803" cy="62.7507269" r="2.60437863"></circle>
                    <circle id="Oval" cx="93.7576307" cy="62.7507269" r="2.60437863"></circle>
                    <circle id="Oval" cx="111.988281" cy="62.7507269" r="2.60437863"></circle>
                    <circle id="Oval" cx="130.218932" cy="62.7507269" r="2.60437863"></circle>
                    <circle id="Oval" cx="20.835029" cy="83.585756" r="2.60437863"></circle>
                    <circle id="Oval" cx="39.0656795" cy="83.585756" r="2.60437863"></circle>
                    <circle id="Oval" cx="57.2963299" cy="83.585756" r="2.60437863"></circle>
                    <circle id="Oval" cx="75.5269803" cy="83.585756" r="2.60437863"></circle>
                    <circle id="Oval" cx="93.7576307" cy="83.585756" r="2.60437863"></circle>
                    <circle id="Oval" cx="111.988281" cy="83.585756" r="2.60437863"></circle>
                    <circle id="Oval" cx="130.218932" cy="83.585756" r="2.60437863"></circle>
                    <circle id="Oval" cx="20.835029" cy="101.816406" r="2.60437863"></circle>
                    <circle id="Oval" cx="39.0656795" cy="101.816406" r="2.60437863"></circle>
                    <circle id="Oval" cx="57.2963299" cy="101.816406" r="2.60437863"></circle>
                    <circle id="Oval" cx="75.5269803" cy="101.816406" r="2.60437863"></circle>
                    <circle id="Oval" cx="93.7576307" cy="101.816406" r="2.60437863"></circle>
                    <circle id="Oval" cx="111.988281" cy="101.816406" r="2.60437863"></circle>
                    <circle id="Oval" cx="130.218932" cy="101.816406" r="2.60437863"></circle>
                    <circle id="Oval" cx="20.835029" cy="122.651435" r="2.60437863"></circle>
                    <circle id="Oval" cx="39.0656795" cy="122.651435" r="2.60437863"></circle>
                    <circle id="Oval" cx="57.2963299" cy="122.651435" r="2.60437863"></circle>
                    <circle id="Oval" cx="75.5269803" cy="122.651435" r="2.60437863"></circle>
                    <circle id="Oval" cx="93.7576307" cy="122.651435" r="2.60437863"></circle>
                </g>
            </g>
        </g>
    </g>
</svg>