<?xml version="1.0" encoding="UTF-8"?>
<svg width="244px" height="240px" viewBox="0 0 244 240" version="1.1" xmlns="http://www.w3.org/2000/svg" xmlns:xlink="http://www.w3.org/1999/xlink">
    <!-- Generator: Sketch 45.2 (43514) - http://www.bohemiancoding.com/sketch -->
    <title>calendar</title>
    <desc>Created with Sketch.</desc>
    <defs>
        <filter x="-14.3%" y="-14.5%" width="129.6%" height="130.0%" filterUnits="objectBoundingBox" id="filter-1">
            <feOffset dx="1" dy="1" in="SourceAlpha" result="shadowOffsetOuter1"></feOffset>
            <feGaussianBlur stdDeviation="10" in="shadowOffsetOuter1" result="shadowBlurOuter1"></feGaussianBlur>
            <feColorMatrix values="0 0 0 0 0.803921569   0 0 0 0 0.803921569   0 0 0 0 0.788235294  0 0 0 0.34 0" type="matrix" in="shadowBlurOuter1" result="shadowMatrixOuter1"></feColorMatrix>
            <feMerge>
                <feMergeNode in="shadowMatrixOuter1"></feMergeNode>
                <feMergeNode in="SourceGraphic"></feMergeNode>
            </feMerge>
        </filter>
    </defs>
    <g id="Page-1" stroke="none" stroke-width="1" fill="none" fill-rule="evenodd">
        <g id="me" transform="translate(-5.000000, -151.000000)" fill-rule="nonzero" fill="#4A4A4A">
            <g id="container" transform="translate(24.000000, 168.000000)">
                <g id="calendar" filter="url(#filter-1)">
                    <g transform="translate(0.142205, 0.263181)">
                        <path d="M150.955149,14.8348253 C149.318884,6.81536602 142.214326,0.759425038 133.716303,0.759425038 C131.770379,0.759425038 130.197453,2.33235102 130.197453,4.27827512 C130.197453,6.22419921 131.770379,7.79712519 133.716303,7.79712519 C139.536481,7.79712519 144.272853,12.5334974 144.272853,18.3536754 C144.272853,24.1738534 139.536481,28.9102257 133.716303,28.9102257 C131.770379,28.9102257 130.197453,30.4831516 130.197453,32.4290757 C130.197453,34.3749998 131.770379,35.9479258 133.716303,35.9479258 C142.210807,35.9479258 149.318884,29.8919848 150.955149,21.8725255 L197.055604,21.8725255 L197.055604,53.5421762 L7.03770015,53.5421762 L7.03770015,21.8725255 L56.3016012,21.8725255 L66.8581515,21.8725255 C68.8040756,21.8725255 70.3770015,20.2995995 70.3770015,18.3536754 C70.3770015,16.4077513 68.8040756,14.8348253 66.8581515,14.8348253 L60.4679197,14.8348253 C61.9247237,10.7459216 65.7954587,7.79712519 70.3770015,7.79712519 C76.1971796,7.79712519 80.9335518,12.5334974 80.9335518,18.3536754 C80.9335518,24.1738534 76.1971796,28.9102257 70.3770015,28.9102257 C68.4310774,28.9102257 66.8581515,30.4831516 66.8581515,32.4290757 C66.8581515,34.3749998 68.4310774,35.9479258 70.3770015,35.9479258 C80.0784712,35.9479258 87.9712519,28.0551451 87.9712519,18.3536754 C87.9712519,8.65220576 80.0784712,0.759425038 70.3770015,0.759425038 C61.8824975,0.759425038 54.7744203,6.81536602 53.138155,14.8348253 L0,14.8348253 L0,60.5798763 L0,201.333879 L204.093304,201.333879 L204.093304,60.5798763 L204.093304,14.8348253 L150.955149,14.8348253 Z M197.055604,194.296179 L7.03770015,194.296179 L7.03770015,60.5798763 L197.055604,60.5798763 L197.055604,194.296179 Z" id="Shape"></path>
                        <path d="M91.490102,7.79712519 C97.31028,7.79712519 102.046652,12.5334974 102.046652,18.3536754 C102.046652,24.1738534 97.31028,28.9102257 91.490102,28.9102257 C89.5441779,28.9102257 87.9712519,30.4831516 87.9712519,32.4290757 C87.9712519,34.3749998 89.5441779,35.9479258 91.490102,35.9479258 C101.191572,35.9479258 109.084352,28.0551451 109.084352,18.3536754 C109.084352,8.65220576 101.191572,0.759425038 91.490102,0.759425038 C89.5441779,0.759425038 87.9712519,2.33235102 87.9712519,4.27827512 C87.9712519,6.22419921 89.5441779,7.79712519 91.490102,7.79712519 Z" id="Shape"></path>
                        <path d="M112.603202,7.79712519 C118.42338,7.79712519 123.159753,12.5334974 123.159753,18.3536754 C123.159753,24.1738534 118.42338,28.9102257 112.603202,28.9102257 C110.657278,28.9102257 109.084352,30.4831516 109.084352,32.4290757 C109.084352,34.3749998 110.657278,35.9479258 112.603202,35.9479258 C122.304672,35.9479258 130.197453,28.0551451 130.197453,18.3536754 C130.197453,8.65220576 122.304672,0.759425038 112.603202,0.759425038 C110.657278,0.759425038 109.084352,2.33235102 109.084352,4.27827512 C109.084352,6.22419921 110.657278,7.79712519 112.603202,7.79712519 Z" id="Shape"></path>
                        <circle id="Oval" cx="77.4147017" cy="85.2118269" r="3.51885008"></circle>
                        <circle id="Oval" cx="102.046652" cy="85.2118269" r="3.51885008"></circle>
                        <circle id="Oval" cx="126.678603" cy="85.2118269" r="3.51885008"></circle>
                        <circle id="Oval" cx="151.310553" cy="85.2118269" r="3.51885008"></circle>
                        <circle id="Oval" cx="175.942504" cy="85.2118269" r="3.51885008"></circle>
                        <circle id="Oval" cx="28.1508006" cy="113.362627" r="3.51885008"></circle>
                        <circle id="Oval" cx="52.7827512" cy="113.362627" r="3.51885008"></circle>
                        <circle id="Oval" cx="77.4147017" cy="113.362627" r="3.51885008"></circle>
                        <circle id="Oval" cx="102.046652" cy="113.362627" r="3.51885008"></circle>
                        <circle id="Oval" cx="126.678603" cy="113.362627" r="3.51885008"></circle>
                        <circle id="Oval" cx="151.310553" cy="113.362627" r="3.51885008"></circle>
                        <circle id="Oval" cx="175.942504" cy="113.362627" r="3.51885008"></circle>
                        <circle id="Oval" cx="28.1508006" cy="137.994578" r="3.51885008"></circle>
                        <circle id="Oval" cx="52.7827512" cy="137.994578" r="3.51885008"></circle>
                        <circle id="Oval" cx="77.4147017" cy="137.994578" r="3.51885008"></circle>
                        <circle id="Oval" cx="102.046652" cy="137.994578" r="3.51885008"></circle>
                        <circle id="Oval" cx="126.678603" cy="137.994578" r="3.51885008"></circle>
                        <circle id="Oval" cx="151.310553" cy="137.994578" r="3.51885008"></circle>
                        <circle id="Oval" cx="175.942504" cy="137.994578" r="3.51885008"></circle>
                        <circle id="Oval" cx="28.1508006" cy="166.145379" r="3.51885008"></circle>
                        <circle id="Oval" cx="52.7827512" cy="166.145379" r="3.51885008"></circle>
                        <circle id="Oval" cx="77.4147017" cy="166.145379" r="3.51885008"></circle>
                        <circle id="Oval" cx="102.046652" cy="166.145379" r="3.51885008"></circle>
                        <circle id="Oval" cx="126.678603" cy="166.145379" r="3.51885008"></circle>
                    </g>
                </g>
            </g>
        </g>
    </g>
</svg>