<?xml version="1.0" encoding="UTF-8"?>
<svg width="19px" height="18px" viewBox="0 0 19 18" version="1.1" xmlns="http://www.w3.org/2000/svg" xmlns:xlink="http://www.w3.org/1999/xlink">
    <!-- Generator: Sketch 45.2 (43514) - http://www.bohemiancoding.com/sketch -->
    <title>heart</title>
    <desc>Created with Sketch.</desc>
    <defs></defs>
    <g id="Page-1" stroke="none" stroke-width="1" fill="none" fill-rule="evenodd">
        <g id="view" transform="translate(-332.000000, -459.000000)" fill-rule="nonzero" fill="#FBC400">
            <g id="container" transform="translate(134.000000, 387.000000)">
                <g id="heart" transform="translate(198.000000, 72.000000)">
                    <path d="M0.484901408,5.7428169 C0.512732394,5.74683099 0.540028169,5.74870423 0.567323944,5.74870423 C0.844028169,5.74870423 1.08594366,5.54585915 1.12715493,5.26407042 C1.27085915,4.2795493 1.7193662,3.38601408 2.42477465,2.67953521 C3.53721127,1.56549296 5.12090141,1.09985915 6.66150704,1.43276056 C7.35032394,1.5818169 7.9896338,1.88822535 8.53929577,2.32415493 C8.07660563,2.89549296 7.7233662,3.55219718 7.50928169,4.25332394 C7.41802817,4.55250704 7.58635211,4.86908451 7.88553521,4.96060563 C7.94066197,4.97746479 7.99632394,4.98549296 8.0511831,4.98549296 C8.2936338,4.98549296 8.51815493,4.82840845 8.5925493,4.58435211 C8.81064789,3.87011268 9.20670423,3.21153521 9.73790141,2.67953521 C10.5155634,1.90080282 11.5466479,1.42580282 12.6419577,1.34204225 C12.9537183,1.31822535 13.187338,1.04580282 13.1632535,0.733774648 C13.1394366,0.421746479 12.8672817,0.189197183 12.5552535,0.212478873 C11.3713662,0.303197183 10.2476901,0.761070423 9.33809859,1.51384507 C8.63215493,0.929126761 7.80043662,0.519957746 6.90101408,0.325408451 C4.98228169,-0.0896478873 3.00922535,0.491323944 1.62329577,1.87885915 C0.744478873,2.75901408 0.185183099,3.87278873 0.00615492958,5.10029577 C-0.0390704225,5.4101831 0.17528169,5.69759155 0.484901408,5.7428169 Z" id="Shape"></path>
                    <path d="M14.4119014,1.52642254 C14.5590845,1.52642254 14.7065352,1.46594366 14.8122394,1.36023944 C14.9160704,1.25453521 14.9762817,1.10922535 14.9762817,0.959901408 C14.9762817,0.810577465 14.9158028,0.663661972 14.8122394,0.557690141 C14.6005634,0.34815493 14.2213662,0.34815493 14.0096901,0.557690141 C13.9039859,0.663661972 13.843507,0.810577465 13.843507,0.959901408 C13.843507,1.10895775 13.9039859,1.25453521 14.0096901,1.36023944 C14.1153944,1.46594366 14.2607042,1.52642254 14.4119014,1.52642254 L14.4119014,1.52642254 Z" id="Shape"></path>
                    <path d="M1.62623944,9.98998592 L1.6291831,9.99319718 L1.6291831,9.99319718 L8.93909859,17.3028451 C9.04961972,17.4133662 9.19466197,17.4687606 9.33970423,17.4687606 C9.48474648,17.4687606 9.62952113,17.4133662 9.74004225,17.3028451 L11.9354789,15.1076761 C12.1567887,14.8866338 12.1567887,14.5280423 11.9354789,14.3067324 C11.714169,14.0856901 11.3555775,14.0854225 11.1345352,14.3067324 L9.33970423,16.1015634 L2.43066197,9.19252113 C2.43039437,9.19225352 2.43012676,9.19198592 2.42985915,9.19171831 C1.98670423,8.7493662 1.64443662,8.23342254 1.41242254,7.65833803 C1.29547887,7.36798592 0.965521127,7.22776056 0.67543662,7.34470423 C0.385352113,7.46164789 0.244859155,7.79160563 0.362070423,8.08169014 C0.650549296,8.79753521 1.07577465,9.43925352 1.62570423,9.9891831 C1.62570423,9.9894507 1.62597183,9.98971831 1.62623944,9.98998592 L1.62623944,9.98998592 Z" id="Shape"></path>
                    <path d="M14.0597324,12.749 C14.2047746,12.749 14.3495493,12.6936056 14.4600704,12.5830845 L17.0534366,9.99025352 C17.0539718,9.9894507 17.054507,9.98864789 17.0553099,9.98811268 C17.0555775,9.98784507 17.0561127,9.98730986 17.0563803,9.98704225 C18.1391127,8.90270423 18.7348028,7.46138028 18.7337324,5.92880282 C18.7323944,4.39622535 18.1345634,2.95570423 17.0499577,1.87297183 C16.8283803,1.65192958 16.4700563,1.65219718 16.2490141,1.87350704 C16.0279718,2.09508451 16.0282394,2.45340845 16.2495493,2.6744507 C17.1200704,3.5433662 17.5998873,4.69915493 17.6006901,5.92933803 C17.6017606,7.15925352 17.1235493,8.31611268 16.2546338,9.1863662 C16.2540986,9.18690141 16.253831,9.18770423 16.2532958,9.18823944 C16.2530282,9.18850704 16.2527606,9.18850704 16.252493,9.18877465 L13.6593944,11.7816056 C13.4380845,12.0029155 13.4380845,12.361507 13.6593944,12.5825493 C13.7699155,12.6936056 13.9146901,12.749 14.0597324,12.749 L14.0597324,12.749 Z" id="Shape"></path>
                </g>
            </g>
        </g>
    </g>
</svg>