<?xml version='1.0' encoding='iso-8859-1'?>
<svg version="1.1" xmlns="http://www.w3.org/2000/svg" viewBox="0 0 70.004 70.004" xmlns:xlink="http://www.w3.org/1999/xlink" enable-background="new 0 0 70.004 70.004">
  <g fill="#010002">
    <path d="m1.812,23.46c0.104,0.015 0.206,0.022 0.308,0.022 1.034,0 1.938-0.758 2.092-1.811 0.537-3.679 2.213-7.018 4.849-9.658 4.157-4.163 10.075-5.903 15.832-4.659 2.574,0.557 4.963,1.702 7.017,3.331-1.729,2.135-3.049,4.589-3.849,7.209-0.341,1.118 0.288,2.301 1.406,2.643 0.206,0.063 0.414,0.093 0.619,0.093 0.906,0 1.745-0.587 2.023-1.499 0.815-2.669 2.295-5.13 4.28-7.118 2.906-2.91 6.759-4.685 10.852-4.998 1.165-0.089 2.038-1.107 1.948-2.273-0.089-1.166-1.106-2.035-2.272-1.948-4.424,0.339-8.623,2.05-12.022,4.863-2.638-2.185-5.746-3.714-9.107-4.441-7.17-1.551-14.543,0.62-19.722,5.805-3.284,3.289-5.374,7.451-6.043,12.038-0.169,1.158 0.632,2.232 1.789,2.401z"/>
    <path d="m53.855,7.704c0.55,0 1.101-0.226 1.496-0.621 0.388-0.395 0.613-0.938 0.613-1.496 0-0.558-0.226-1.107-0.613-1.503-0.791-0.783-2.208-0.783-2.999,0-0.395,0.396-0.621,0.945-0.621,1.503 0,0.557 0.226,1.101 0.621,1.496 0.395,0.395 0.938,0.621 1.503,0.621z"/>
    <path d="m6.077,39.331l.011,.012 0,0 27.316,27.315c0.413,0.413 0.955,0.62 1.497,0.62 0.542,0 1.083-0.207 1.496-0.62l8.204-8.203c0.827-0.826 0.827-2.166 0-2.993-0.827-0.826-2.167-0.827-2.993,0l-6.707,6.707-25.818-25.818c-0.001-0.001-0.002-0.002-0.003-0.003-1.656-1.653-2.935-3.581-3.802-5.73-0.437-1.085-1.67-1.609-2.754-1.172-1.084,0.437-1.609,1.67-1.171,2.754 1.078,2.675 2.667,5.073 4.722,7.128-8.88178e-16,0.001 0.001,0.002 0.002,0.003z"/>
    <path d="m52.539,49.641c0.542,0 1.083-0.207 1.496-0.62l9.691-9.689c0.002-0.003 0.004-0.006 0.007-0.008 0.001-0.001 0.003-0.003 0.004-0.004 4.046-4.052 6.272-9.438 6.268-15.165-0.005-5.727-2.239-11.11-6.292-15.156-0.828-0.826-2.167-0.825-2.993,0.002-0.826,0.828-0.825,2.167 0.002,2.993 3.253,3.247 5.046,7.566 5.049,12.163 0.004,4.596-1.783,8.919-5.03,12.171-0.002,0.002-0.003,0.005-0.005,0.007-0.001,0.001-0.002,0.001-0.003,0.002l-9.69,9.689c-0.827,0.827-0.827,2.167 0,2.993 0.413,0.415 0.954,0.622 1.496,0.622z"/>
  </g>
</svg>
