<?xml version="1.0" encoding="UTF-8"?>
<svg width="66px" height="60px" viewBox="0 0 66 60" version="1.1" xmlns="http://www.w3.org/2000/svg" xmlns:xlink="http://www.w3.org/1999/xlink">
    <!-- Generator: Sketch 45.2 (43514) - http://www.bohemiancoding.com/sketch -->
    <title>photo-camera</title>
    <desc>Created with Sketch.</desc>
    <defs>
        <filter x="-49.2%" y="-49.2%" width="201.7%" height="201.7%" filterUnits="objectBoundingBox" id="filter-1">
            <feOffset dx="1" dy="1" in="SourceAlpha" result="shadowOffsetOuter1"></feOffset>
            <feGaussianBlur stdDeviation="10" in="shadowOffsetOuter1" result="shadowBlurOuter1"></feGaussianBlur>
            <feColorMatrix values="0 0 0 0 0.803921569   0 0 0 0 0.803921569   0 0 0 0 0.788235294  0 0 0 0.34 0" type="matrix" in="shadowBlurOuter1" result="shadowMatrixOuter1"></feColorMatrix>
            <feMerge>
                <feMergeNode in="shadowMatrixOuter1"></feMergeNode>
                <feMergeNode in="SourceGraphic"></feMergeNode>
            </feMerge>
        </filter>
    </defs>
    <g id="Page-1" stroke="none" stroke-width="1" fill="none" fill-rule="evenodd">
        <g id="me" transform="translate(-137.000000, -464.000000)" fill-rule="nonzero" fill="#4A4A4A">
            <g id="container" transform="translate(139.000000, 281.000000)">
                <g id="photo-camera" filter="url(#filter-1)" transform="translate(0.000000, 181.000000)">
                    <g transform="translate(17.000000, 20.000000)" id="Shape">
                        <path d="M24.4893103,1.79310345 L1.51068966,1.79310345 C0.677793103,1.79310345 0,2.47089655 0,3.3037931 L0,19.11 C0,19.9428966 0.677793103,20.6206897 1.51068966,20.6206897 L24.4893103,20.6206897 C25.3222069,20.6206897 26,19.9428966 26,19.11 L26,3.3037931 C26,2.47089655 25.3222069,1.79310345 24.4893103,1.79310345 Z M25.1034483,19.11 C25.1034483,19.4488966 24.8282069,19.7241379 24.4893103,19.7241379 L1.51068966,19.7241379 C1.1717931,19.7241379 0.896551724,19.4488966 0.896551724,19.11 L0.896551724,3.3037931 C0.896551724,2.96489655 1.1717931,2.68965517 1.51068966,2.68965517 L24.4893103,2.68965517 C24.8282069,2.68965517 25.1034483,2.96489655 25.1034483,3.3037931 L25.1034483,19.11 Z"></path>
                        <path d="M13.4482759,3.5862069 C9.24613793,3.5862069 5.82758621,7.00475862 5.82758621,11.2068966 C5.82758621,15.4090345 9.24613793,18.8275862 13.4482759,18.8275862 C17.6504138,18.8275862 21.0689655,15.4090345 21.0689655,11.2068966 C21.0689655,7.00475862 17.6504138,3.5862069 13.4482759,3.5862069 Z M13.4482759,17.9310345 C9.74058621,17.9310345 6.72413793,14.9145862 6.72413793,11.2068966 C6.72413793,7.4992069 9.74058621,4.48275862 13.4482759,4.48275862 C17.1559655,4.48275862 20.1724138,7.4992069 20.1724138,11.2068966 C20.1724138,14.9145862 17.1559655,17.9310345 13.4482759,17.9310345 Z"></path>
                        <path d="M8.96551724,0.896551724 L17.4827586,0.896551724 C17.7306552,0.896551724 17.9310345,0.696172414 17.9310345,0.448275862 C17.9310345,0.20037931 17.7306552,0 17.4827586,0 L8.96551724,0 C8.71762069,0 8.51724138,0.20037931 8.51724138,0.448275862 C8.51724138,0.696172414 8.71762069,0.896551724 8.96551724,0.896551724 Z"></path>
                    </g>
                </g>
            </g>
        </g>
    </g>
</svg>