<?xml version="1.0" encoding="UTF-8"?>
<svg width="211px" height="168px" viewBox="0 0 211 168" version="1.1" xmlns="http://www.w3.org/2000/svg" xmlns:xlink="http://www.w3.org/1999/xlink">
    <!-- Generator: Sketch 45.2 (43514) - http://www.bohemiancoding.com/sketch -->
    <title>photo-camera</title>
    <desc>Created with Sketch.</desc>
    <defs></defs>
    <g id="Page-1" stroke="none" stroke-width="1" fill="none" fill-rule="evenodd">
        <g id="me" transform="translate(-19.000000, -373.000000)" fill-rule="nonzero" fill="#4A4A4A">
            <g id="container" transform="translate(19.000000, 281.000000)">
                <g id="photo-camera" transform="translate(0.108351, 92.430761)">
                    <path d="M198.548876,14.5377175 L12.248027,14.5377175 C5.49525721,14.5377175 0,20.0329747 0,26.7857445 L0,154.935724 C0,161.688494 5.49525721,167.183751 12.248027,167.183751 L198.548876,167.183751 C205.301646,167.183751 210.796903,161.688494 210.796903,154.935724 L210.796903,26.7857445 C210.796903,20.0329747 205.301646,14.5377175 198.548876,14.5377175 Z M203.528045,154.935724 C203.528045,157.683353 201.296505,159.914892 198.548876,159.914892 L12.248027,159.914892 C9.50039837,159.914892 7.26885874,157.683353 7.26885874,154.935724 L7.26885874,26.7857445 C7.26885874,24.0381159 9.50039837,21.8065762 12.248027,21.8065762 L198.548876,21.8065762 C201.296505,21.8065762 203.528045,24.0381159 203.528045,26.7857445 L203.528045,154.935724 Z" id="Shape"></path>
                    <path d="M109.032881,29.075435 C74.9637402,29.075435 47.2475818,56.7915933 47.2475818,90.8607342 C47.2475818,124.929875 74.9637402,152.646034 109.032881,152.646034 C143.102022,152.646034 170.81818,124.929875 170.81818,90.8607342 C170.81818,56.7915933 143.102022,29.075435 109.032881,29.075435 Z M109.032881,145.377175 C78.9725158,145.377175 54.5164405,120.9211 54.5164405,90.8607342 C54.5164405,60.8003689 78.9725158,36.3442937 109.032881,36.3442937 C139.093246,36.3442937 163.549322,60.8003689 163.549322,90.8607342 C163.549322,120.9211 139.093246,145.377175 109.032881,145.377175 Z" id="Shape"></path>
                    <path d="M72.6885874,7.26885874 L141.742745,7.26885874 C143.752585,7.26885874 145.377175,5.64426881 145.377175,3.63442937 C145.377175,1.62458993 143.752585,0 141.742745,0 L72.6885874,0 C70.678748,0 69.054158,1.62458993 69.054158,3.63442937 C69.054158,5.64426881 70.678748,7.26885874 72.6885874,7.26885874 Z" id="Shape"></path>
                </g>
            </g>
        </g>
    </g>
</svg>