<?xml version="1.0" encoding="UTF-8"?>
<svg width="19px" height="19px" viewBox="0 0 19 19" version="1.1" xmlns="http://www.w3.org/2000/svg" xmlns:xlink="http://www.w3.org/1999/xlink">
    <!-- Generator: Sketch 45.2 (43514) - http://www.bohemiancoding.com/sketch -->
    <title>robot</title>
    <desc>Created with Sketch.</desc>
    <defs></defs>
    <g id="Page-1" stroke="none" stroke-width="1" fill="none" fill-rule="evenodd">
        <g id="view" transform="translate(-49.000000, -457.000000)" fill-rule="nonzero" fill="#4A4A4A">
            <g id="robot" transform="translate(49.000000, 457.000000)">
                <path d="M16.1191481,10.746 C15.9443704,10.746 15.8031111,10.8875926 15.8031111,11.062037 L15.8031111,13.5904444 C15.8031111,14.1131852 15.3777037,14.5385926 14.854963,14.5385926 L4.10925926,14.5385926 C3.58651852,14.5385926 3.16111111,14.1131852 3.16111111,13.5904444 L3.16111111,11.062037 C3.16111111,10.8875926 3.01985185,10.746 2.84507407,10.746 C2.6702963,10.746 2.52903704,10.8875926 2.52903704,11.062037 L2.52903704,13.5904444 C2.52903704,14.4617778 3.23792593,15.1707037 4.1092963,15.1707037 L14.854963,15.1707037 C15.7262963,15.1707037 16.4352222,14.4618148 16.4352222,13.5904444 L16.4352222,11.062037 C16.4351852,10.8875926 16.2939259,10.746 16.1191481,10.746 Z" id="Shape"></path>
                <path d="M3.16111111,9.79785185 L3.16111111,6.63737037 C3.16111111,6.11462963 3.58651852,5.68922222 4.10925926,5.68922222 L6.63766667,5.68922222 C6.81244444,5.68922222 6.9537037,5.54762963 6.9537037,5.37318519 C6.9537037,4.12733333 8.31303704,3.16085185 9.48211111,3.16085185 C10.3044815,3.16085185 11.1751852,3.615 11.6495926,4.29103704 C11.7497778,4.43359259 11.9466667,4.46866667 12.0898519,4.36848148 C12.2327037,4.26796296 12.2674815,4.07107407 12.166963,3.92822222 C11.6315926,3.16462963 10.7267407,2.64759259 9.79818519,2.5492963 L9.79818519,1.83844444 C10.1651111,1.7072963 10.4302963,1.35996296 10.4302963,0.948444444 C10.4302963,0.425703704 10.0048889,0.000296296296 9.48214815,0.000296296296 C8.95940741,0.000296296296 8.534,0.425703704 8.534,0.948444444 C8.534,1.35992593 8.79914815,1.7072963 9.16611111,1.83811111 L9.16611111,2.54825926 C7.86366667,2.69237037 6.52614815,3.70025926 6.34285185,5.05707407 L4.10925926,5.05707407 C3.23792593,5.05707407 2.529,5.76596296 2.529,6.63733333 L2.52837037,9.48177778 L1.83814815,9.48177778 C1.707,9.11451852 1.35966667,8.84966667 0.948148148,8.84966667 C0.425407407,8.84966667 0,9.27507407 0,9.79781481 C0,10.3205556 0.425407407,10.745963 0.948148148,10.745963 C1.35962963,10.745963 1.707,10.4811111 1.83814815,10.1138519 L2.84507407,10.1138519 C3.01985185,10.1138889 3.16111111,9.9722963 3.16111111,9.79785185 Z M9.48211111,0.632407407 C9.65655556,0.632407407 9.79814815,0.774296296 9.79814815,0.948444444 C9.79814815,1.12259259 9.65655556,1.26448148 9.48211111,1.26448148 C9.30766667,1.26448148 9.16607407,1.12259259 9.16607407,0.948444444 C9.16607407,0.774333333 9.30766667,0.632407407 9.48211111,0.632407407 Z M0.948148148,10.1138889 C0.773703704,10.1138889 0.632111111,9.972 0.632111111,9.79785185 C0.632111111,9.6237037 0.773703704,9.48181481 0.948148148,9.48181481 C1.12259259,9.48181481 1.26418519,9.6237037 1.26418519,9.79785185 C1.26418519,9.972 1.12259259,10.1138889 0.948148148,10.1138889 Z" id="Shape"></path>
                <path d="M18.0154444,8.8497037 C17.603963,8.8497037 17.2566296,9.11455556 17.1257778,9.48181481 L16.4351852,9.48181481 L16.4351852,6.63737037 C16.4351852,5.76603704 15.7262963,5.05711111 14.8549259,5.05711111 L7.90185185,5.05711111 C7.72707407,5.05711111 7.58581481,5.1987037 7.58581481,5.37314815 C7.58581481,5.54759259 7.72707407,5.68918519 7.90185185,5.68918519 L14.8549259,5.68918519 C15.3776667,5.68918519 15.8030741,6.11459259 15.8030741,6.63733333 L15.8030741,9.79781481 C15.8030741,9.97225926 15.9443333,10.1138519 16.1191111,10.1138519 L17.1257407,10.1138519 C17.2565926,10.4811111 17.6039259,10.745963 18.0154074,10.745963 C18.5381481,10.745963 18.9635556,10.3205556 18.9635556,9.79781481 C18.9635926,9.27511111 18.5381852,8.8497037 18.0154444,8.8497037 Z M18.0154444,10.1138889 C17.841,10.1138889 17.6994074,9.972 17.6994074,9.79785185 C17.6994074,9.6237037 17.841,9.48181481 18.0154444,9.48181481 C18.1898889,9.48181481 18.3314815,9.6237037 18.3314815,9.79785185 C18.3314815,9.972 18.1899259,10.1138889 18.0154444,10.1138889 Z" id="Shape"></path>
                <path d="M12.3265556,15.8027778 L6.63766667,15.8027778 C6.46288889,15.8027778 6.32162963,15.9443704 6.32162963,16.1188148 C6.32162963,16.2932593 6.46288889,16.4348519 6.63766667,16.4348519 L12.3265556,16.4348519 C12.5013333,16.4348519 12.6425926,16.2932593 12.6425926,16.1188148 C12.6425926,15.9443704 12.5013333,15.8027778 12.3265556,15.8027778 Z" id="Shape"></path>
                <path d="M13.9068148,8.53366667 C13.9068148,8.01092593 13.4814074,7.58551852 12.9586667,7.58551852 C12.4359259,7.58551852 12.0105185,8.01092593 12.0105185,8.53366667 C12.0105185,9.05640741 12.4359259,9.48181481 12.9586667,9.48181481 C13.4814074,9.48181481 13.9068148,9.05640741 13.9068148,8.53366667 Z M12.6425926,8.53366667 C12.6425926,8.35951852 12.7841852,8.21762963 12.9586296,8.21762963 C13.1330741,8.21762963 13.2746667,8.35951852 13.2746667,8.53366667 C13.2746667,8.70781481 13.1330741,8.8497037 12.9586296,8.8497037 C12.7841852,8.8497037 12.6425926,8.70777778 12.6425926,8.53366667 Z" id="Shape"></path>
                <path d="M6.9537037,8.53366667 C6.9537037,8.01092593 6.5282963,7.58551852 6.00555556,7.58551852 C5.48281481,7.58551852 5.05740741,8.01092593 5.05740741,8.53366667 C5.05740741,9.05640741 5.48281481,9.48181481 6.00555556,9.48181481 C6.5282963,9.48181481 6.9537037,9.05640741 6.9537037,8.53366667 Z M6.00555556,8.8497037 C5.83111111,8.8497037 5.68951852,8.70781481 5.68951852,8.53366667 C5.68951852,8.35951852 5.83111111,8.21762963 6.00555556,8.21762963 C6.18,8.21762963 6.32159259,8.35951852 6.32159259,8.53366667 C6.32162963,8.70777778 6.18003704,8.8497037 6.00555556,8.8497037 Z" id="Shape"></path>
                <path d="M11.6944444,18.3311852 L7.26977778,18.3311852 C7.095,18.3311852 6.95374074,18.4727778 6.95374074,18.6472222 C6.95374074,18.8216667 7.095,18.9632593 7.26977778,18.9632593 L11.6944444,18.9632593 C11.8692222,18.9632593 12.0104815,18.8216667 12.0104815,18.6472222 C12.0104815,18.4727778 11.8692222,18.3311852 11.6944444,18.3311852 Z" id="Shape"></path>
                <path d="M6.32162963,11.6941481 L6.32162963,12.9583333 C6.32162963,13.1327778 6.46288889,13.2743704 6.63766667,13.2743704 L12.3265556,13.2743704 C12.5013333,13.2743704 12.6425926,13.1327778 12.6425926,12.9583333 L12.6425926,11.6941481 C12.6425926,11.5197037 12.5013333,11.3781111 12.3265556,11.3781111 L6.63766667,11.3781111 C6.46288889,11.3781111 6.32162963,11.5196667 6.32162963,11.6941481 Z M10.7462963,12.0101852 L12.0104815,12.0101852 L12.0104815,12.6422963 L10.7462963,12.6422963 L10.7462963,12.0101852 Z M8.85,12.0101852 L10.1141852,12.0101852 L10.1141852,12.6422963 L8.85,12.6422963 L8.85,12.0101852 Z M6.9537037,12.0101852 L8.21788889,12.0101852 L8.21788889,12.6422963 L6.9537037,12.6422963 L6.9537037,12.0101852 Z" id="Shape"></path>
                <path d="M11.6944444,17.067 L7.26977778,17.067 C7.095,17.067 6.95374074,17.2085926 6.95374074,17.383037 C6.95374074,17.5574815 7.095,17.6990741 7.26977778,17.6990741 L11.6944444,17.6990741 C11.8692222,17.6990741 12.0104815,17.5574815 12.0104815,17.383037 C12.0104815,17.2085926 11.8692222,17.067 11.6944444,17.067 Z" id="Shape"></path>
            </g>
        </g>
    </g>
</svg>