<?xml version="1.0" encoding="UTF-8"?>
<svg width="155px" height="155px" viewBox="0 0 155 155" version="1.1" xmlns="http://www.w3.org/2000/svg" xmlns:xlink="http://www.w3.org/1999/xlink">
    <!-- Generator: Sketch 45.2 (43514) - http://www.bohemiancoding.com/sketch -->
    <title>user</title>
    <desc>Created with Sketch.</desc>
    <defs></defs>
    <g id="Page-1" stroke="none" stroke-width="1" fill="none" fill-rule="evenodd">
        <g id="me" transform="translate(-219.000000, -446.000000)" fill-rule="nonzero" fill="#4A4A4A">
            <g id="container" transform="translate(139.000000, 281.000000)">
                <g id="user" transform="translate(80.320159, 165.320159)">
                    <path d="M131.73688,22.5956698 C101.647534,-7.49419906 52.6876325,-7.49419906 22.5982872,22.5956698 C12.0411824,33.1527746 4.81971855,46.4157689 1.7138871,60.9513533 C-1.30975734,75.1047942 -0.31932533,89.7686321 4.57786887,103.35671 C5.16626505,104.98841 6.96652704,105.834361 8.59770364,105.246488 C10.2299272,104.658092 11.0758776,102.858353 10.4874814,101.226653 C5.98813517,88.7420797 5.07831972,75.2691682 7.85697357,62.2632045 C10.7083917,48.9164527 17.3419828,36.7349766 27.0400502,27.0369093 C54.6805367,-0.603577222 99.6546303,-0.603577222 127.295117,27.0369093 C140.458126,40.2004416 147.826689,57.6978993 148.042887,76.3072373 C148.259086,94.8825488 141.336532,112.519777 128.551479,125.969131 C128.400192,126.128271 128.250475,126.288457 128.100759,126.448643 C127.835876,126.731848 127.571516,127.015576 127.295117,127.291976 C99.6546303,154.932462 54.6805367,154.932462 27.0400502,127.291976 C26.8929511,127.144877 26.7495165,126.99516 26.6076523,126.845444 C26.6003235,126.555434 26.5940417,126.269611 26.5940417,125.987977 C26.5940417,125.355608 26.6060818,124.725857 26.6291151,124.098199 C26.6369674,123.888282 26.6526719,123.680459 26.6631416,123.471065 C26.6835575,123.053848 26.7029264,122.636631 26.7332885,122.221508 C26.7516104,121.9739 26.7783081,121.72891 26.8002944,121.482349 C26.8332739,121.108058 26.8641595,120.733766 26.9049913,120.361569 C26.9337829,120.09878 26.9714737,119.838085 27.0044532,119.576343 C27.0489494,119.222991 27.0913516,118.868592 27.1437,118.516811 C27.1834848,118.248787 27.2305984,117.983381 27.2745711,117.716927 C27.3305839,117.374045 27.3850262,117.031163 27.4483678,116.690375 C27.4980988,116.420781 27.5551586,116.153804 27.6096009,115.88578 C27.6771304,115.551273 27.7436129,115.216244 27.8179476,114.883831 C27.8781483,114.614237 27.9451543,114.346213 28.0095428,114.078189 C28.0880654,113.751011 28.1660646,113.423834 28.250869,113.099274 C28.3215394,112.830203 28.3979681,112.563226 28.4723028,112.295725 C28.5618186,111.975353 28.6508109,111.654457 28.7466085,111.336179 C28.8267016,111.069202 28.912553,110.804319 28.9973574,110.539436 C29.0978664,110.224822 29.1983753,109.909685 29.3046426,109.597688 C29.3946819,109.334376 29.488909,109.072634 29.5831362,108.810891 C29.6946383,108.500989 29.8066639,108.191086 29.9239243,107.883278 C30.0233863,107.623106 30.1265127,107.365552 30.2301626,107.107474 C30.3521344,106.80333 30.4751531,106.499185 30.6028833,106.197659 C30.711768,105.941151 30.8237936,105.686738 30.9368662,105.432325 C31.0693077,105.133415 31.2033196,104.835553 31.3415194,104.539784 C31.4593033,104.287988 31.5797047,104.037763 31.7016765,103.788061 C31.8451112,103.494386 31.9901163,103.201235 32.1387858,102.910702 C32.2649455,102.664664 32.3931991,102.419674 32.5235466,102.17573 C32.677451,101.886767 32.8339727,101.59885 32.9936354,101.312505 C33.1281708,101.071702 33.2642767,100.831946 33.4024765,100.593761 C33.5668505,100.310556 33.733842,100.028921 33.9039743,99.7483339 C34.0468855,99.512766 34.1913671,99.2782451 34.3379427,99.0447712 C34.5127864,98.7673246 34.6902475,98.4914485 34.8703261,98.2176663 C35.0210895,97.9878567 35.1728999,97.7590942 35.3273277,97.531902 C35.5121176,97.2596903 35.7010954,96.9906194 35.8916436,96.7220721 C36.0502593,96.4985443 36.208875,96.2755401 36.3711551,96.0551533 C36.5664147,95.7892233 36.7658622,95.5259108 36.9663566,95.2641687 C37.1323011,95.0474463 37.297722,94.8307238 37.4673309,94.6166188 C37.6730602,94.3564472 37.8835008,94.0994165 38.0944649,93.8434327 C38.2666912,93.6340391 38.4389175,93.4246454 38.6148082,93.2178692 C38.8315306,92.9634559 39.0529644,92.712707 39.2749217,92.4624815 C39.4539533,92.2604167 39.6319379,92.0578283 39.8141103,91.8589043 C40.0413025,91.6107728 40.2732059,91.3673527 40.5056329,91.1239326 C40.6909463,90.9291965 40.8752127,90.7339369 41.063667,90.5418182 C41.3018523,90.2999685 41.5452724,90.0633537 41.7881691,89.8256919 C41.9787173,89.639855 42.1676951,89.4519242 42.3613842,89.2687048 C42.6116096,89.0320899 42.8675934,88.8012334 43.1225302,88.5698534 C43.3172663,88.3934393 43.5093849,88.2149312 43.7067385,88.0411344 C43.970051,87.809231 44.2401688,87.5841328 44.5087162,87.3574641 C44.7055462,87.1915197 44.9002823,87.0229578 45.0997298,86.8596307 C45.3776999,86.6324386 45.6624752,86.4120518 45.9462037,86.1900945 C46.1440807,86.0356667 46.3388168,85.8775744 46.5387877,85.725764 C46.8376972,85.4990954 47.1428884,85.280279 47.4475562,85.0604157 C47.6396749,84.9211689 47.8281292,84.7787812 48.0228653,84.6421519 C48.3589421,84.4060605 48.7028712,84.1783449 49.0457533,83.9495823 C49.2148387,83.8370332 49.3802597,83.7202963 49.550392,83.6093176 C49.9974475,83.3187839 50.4523552,83.0376729 50.9104038,82.7602263 C50.9815977,82.7173006 51.0506976,82.671234 51.1224149,82.6283083 C51.6521809,82.311077 52.1892756,82.0032683 52.7326521,81.7038353 C52.918489,81.6017559 53.1095607,81.5059583 53.2974915,81.4059729 C53.6581721,81.2133307 54.0178057,81.0191181 54.3847681,80.8348517 C54.6198125,80.7165442 54.8606152,80.6055656 55.0977535,80.4909226 C55.3971865,80.3459175 55.6955724,80.1993419 55.9986697,80.0595716 C61.6915599,85.497525 69.2857444,88.5761352 77.1683687,88.5761352 C85.050993,88.5761352 92.645701,85.4970015 98.3385911,80.0585247 C109.451636,85.2017564 118.547173,94.4302585 123.485199,105.652712 C124.183527,107.239916 126.036137,107.9618 127.624912,107.262949 C129.212639,106.564098 129.933477,104.71044 129.234626,103.123236 C123.833316,90.8475329 114.42997,81.0379635 102.527511,75.1163108 C105.980936,70.0505547 107.849251,64.0687014 107.849251,57.8957763 C107.849251,40.9783391 94.0858059,27.2148939 77.1683687,27.2148939 C75.4340657,27.2148939 74.0274638,28.6214958 74.0274638,30.3557988 C74.0274638,32.0901017 75.4340657,33.4967037 77.1683687,33.4967037 C90.6224348,33.4967037 101.567441,44.4422337 101.567441,57.8957763 C101.567441,63.9116561 99.3316405,69.7045317 95.2725445,74.2059719 C95.272021,74.2064954 95.2714975,74.2070189 95.270974,74.2075423 C90.6360454,79.3471097 84.0380512,82.2948489 77.1678452,82.2948489 C70.2976392,82.2948489 63.6991216,79.3471097 59.0647164,74.2075423 C59.0641929,74.2064954 59.0631459,74.2059719 59.062099,74.2054484 C55.0035264,69.7024378 52.7682491,63.9111326 52.7682491,57.8962998 C52.7682491,51.3297146 55.3390797,45.1693532 60.0075113,40.551176 C61.24084,39.3309345 61.2513097,37.3422182 60.0310681,36.109413 C58.8113501,34.8755609 56.8226338,34.8661382 55.5893051,36.0853328 C49.7194774,41.890772 46.4864393,49.6367669 46.4864393,57.8942058 C46.4864393,64.0608491 48.3500429,70.0385146 51.7977095,75.1016533 C51.7668239,75.1168343 51.7369853,75.1335858 51.7066232,75.1492903 C51.4616326,75.2717856 51.2224004,75.4016097 50.9795037,75.5267224 C50.6073065,75.7193646 50.2340623,75.9109598 49.8670999,76.1114542 C49.6074518,76.2527949 49.353562,76.4014644 49.0965313,76.5464695 C48.7536491,76.7406821 48.4102435,76.9338478 48.0720728,77.1343422 C47.8098072,77.2903405 47.5517295,77.4515736 47.2920814,77.6112363 C46.9675212,77.8112072 46.6429611,78.0106547 46.3231122,78.2163839 C46.0618937,78.3844224 45.8053864,78.5571721 45.5473087,78.7288749 C45.2368826,78.9356512 44.92698,79.1434744 44.6212653,79.3560089 C44.3642346,79.5350405 44.1103447,79.7177365 43.8564549,79.9004324 C43.558069,80.1155844 43.26073,80.3317834 42.9670554,80.5521702 C42.7152595,80.741148 42.4666045,80.9327432 42.218473,81.1253854 C41.9305568,81.3489131 41.6447344,81.5740113 41.362053,81.8027738 C41.1170624,82.0006509 40.8741657,82.2011453 40.6323161,82.4026867 C40.354346,82.6351136 40.0784698,82.870158 39.8052111,83.1078198 C39.5680728,83.3135491 39.3325049,83.5208488 39.099031,83.730766 C38.8294367,83.9731391 38.5635067,84.2181297 38.2991472,84.4652142 C38.0709081,84.6782723 37.8431925,84.8918538 37.6180943,85.1090997 C37.3568758,85.3614191 37.099845,85.6174028 36.8433378,85.8744335 C36.6245214,86.0937734 36.4057051,86.3125898 36.1910766,86.5350705 C35.9371867,86.7983831 35.6880083,87.0664069 35.4393533,87.3344308 C35.2315301,87.558482 35.0221365,87.7814863 34.8179776,88.0092019 C34.5693227,88.2856015 34.327473,88.5677595 34.0845763,88.8488705 C33.8893168,89.0750156 33.6924867,89.2990668 33.5008915,89.5278294 C33.2543305,89.822551 33.0156217,90.1230309 32.7753425,90.4224638 C32.5968344,90.6454681 32.4146619,90.8653314 32.2392947,91.0909531 C31.9869754,91.4155132 31.7430318,91.7463552 31.4980412,92.0761502 C31.3441368,92.28345 31.1860446,92.4870853 31.0352812,92.696479 C30.7253786,93.125736 30.4254222,93.5612748 30.1280832,93.9989075 C30.050084,94.114074 29.9673735,94.2260996 29.8898979,94.3417896 C29.5197946,94.8945889 29.160161,95.45367 28.8099501,96.0190328 C28.6890252,96.2142924 28.5754292,96.4137399 28.4571218,96.6100464 C28.2304531,96.9864316 28.0027375,97.3622932 27.7844446,97.7439131 C27.6483388,97.9820984 27.5195617,98.2244716 27.3871202,98.4647508 C27.1960484,98.8102503 27.0039298,99.1547029 26.8207103,99.5043903 C26.6846044,99.763515 26.5558273,100.025781 26.4233858,100.286999 C26.25273,100.624123 26.0815507,100.960723 25.9177002,101.301511 C25.7873526,101.572676 25.6632869,101.846982 25.5371272,102.119717 C25.3821759,102.456317 25.2267011,102.792394 25.0780316,103.132135 C24.9555363,103.412199 24.8382758,103.694881 24.7204919,103.977039 C24.5786277,104.315733 24.4378105,104.654427 24.3027516,104.995739 C24.1891555,105.282608 24.0802708,105.571048 23.9713861,105.859488 C23.842609,106.201846 23.7154023,106.544729 23.5929071,106.889705 C23.4892572,107.182332 23.3887482,107.47653 23.2892863,107.771252 C23.1725493,108.117275 23.0589532,108.464345 22.9490216,108.813509 C22.8553179,109.110324 22.7647551,109.408187 22.6757628,109.706573 C22.571066,110.058878 22.4700336,110.412229 22.372142,110.767152 C22.2894315,111.066585 22.2082915,111.366541 22.1302923,111.668068 C22.0376357,112.026655 21.9496903,112.386812 21.8638389,112.748016 C21.7921216,113.049543 21.7209277,113.350546 21.6544453,113.65312 C21.5738287,114.019035 21.4989705,114.387045 21.4256827,114.755577 C21.365482,115.057104 21.3042344,115.358631 21.248745,115.661729 C21.1801686,116.03759 21.1183975,116.415546 21.0571498,116.794025 C21.0089893,117.092411 20.9582113,117.390273 20.9147622,117.689706 C20.8577024,118.080225 20.8095418,118.472838 20.7603343,118.865452 C20.7242139,119.156509 20.6844291,119.447042 20.6524966,119.739147 C20.607477,120.150605 20.572927,120.564681 20.5368066,120.978757 C20.5127263,121.254633 20.4839347,121.529462 20.4640423,121.806909 C20.4305393,122.269145 20.408553,122.733476 20.3860432,123.19833 C20.37505,123.429186 20.357775,123.658472 20.3493993,123.889852 C20.324272,124.587133 20.310138,125.287032 20.310138,125.989547 C20.310138,126.748076 20.3357887,127.465249 20.3666743,128.257281 C20.374003,128.4405 20.3996538,128.618485 20.4362976,128.792281 C20.4394386,128.805892 20.441009,128.819503 20.4441499,128.833113 C20.4828877,129.004292 20.5373301,129.168667 20.6027656,129.327806 C20.6090474,129.34351 20.6148057,129.359215 20.621611,129.374919 C20.6891405,129.531965 20.769757,129.681681 20.8608433,129.824069 C20.8723599,129.841867 20.8833531,129.859666 20.8948698,129.876941 C20.9885734,130.016711 21.0927468,130.148105 21.2063428,130.270601 C21.2147186,130.2795 21.2204769,130.290493 21.2288526,130.299392 L21.6434521,130.740689 C21.9564956,131.075719 22.2695391,131.409702 22.5961932,131.735833 C37.6411276,146.780767 57.4031777,154.303234 77.1657513,154.303234 C96.9283248,154.303234 116.690375,146.780767 131.735309,131.735833 C132.061963,131.409702 132.375007,131.075196 132.68805,130.740689 L133.10265,130.299392 C147.02157,115.657017 154.557648,96.4577126 154.322603,76.2365669 C154.088606,55.975113 146.066735,36.9255248 131.73688,22.5956698 Z" id="Shape"></path>
                </g>
            </g>
        </g>
    </g>
</svg>