<?xml version="1.0" encoding="UTF-8"?>
<svg width="64px" height="64px" viewBox="0 0 64 64" version="1.1" xmlns="http://www.w3.org/2000/svg" xmlns:xlink="http://www.w3.org/1999/xlink">
    <!-- Generator: Sketch 45.2 (43514) - http://www.bohemiancoding.com/sketch -->
    <title>user</title>
    <desc>Created with Sketch.</desc>
    <defs>
        <filter x="-49.2%" y="-49.2%" width="201.7%" height="201.7%" filterUnits="objectBoundingBox" id="filter-1">
            <feOffset dx="1" dy="1" in="SourceAlpha" result="shadowOffsetOuter1"></feOffset>
            <feGaussianBlur stdDeviation="10" in="shadowOffsetOuter1" result="shadowBlurOuter1"></feGaussianBlur>
            <feColorMatrix values="0 0 0 0 0.803921569   0 0 0 0 0.803921569   0 0 0 0 0.788235294  0 0 0 0.34 0" type="matrix" in="shadowBlurOuter1" result="shadowMatrixOuter1"></feColorMatrix>
            <feMerge>
                <feMergeNode in="shadowMatrixOuter1"></feMergeNode>
                <feMergeNode in="SourceGraphic"></feMergeNode>
            </feMerge>
        </filter>
    </defs>
    <g id="Page-1" stroke="none" stroke-width="1" fill="none" fill-rule="evenodd">
        <g id="me" transform="translate(-138.000000, -551.000000)" fill-rule="nonzero" fill="#4A4A4A">
            <g id="container" transform="translate(139.000000, 281.000000)">
                <g id="user" filter="url(#filter-1)" transform="translate(0.000000, 271.000000)">
                    <g transform="translate(17.000000, 17.000000)" id="Shape">
                        <path d="M22.1796746,3.80428475 C17.1137288,-1.26174915 8.87067119,-1.26174915 3.80472542,3.80428475 C2.02729492,5.58171525 0.811464407,7.81471864 0.288555932,10.2619797 C-0.220515254,12.6449017 -0.0537627119,15.1137559 0.770745763,17.4014915 C0.869810169,17.6762102 1.17290847,17.8186373 1.44753898,17.719661 C1.72234576,17.6205966 1.86477288,17.3175864 1.76570847,17.0428678 C1.00818305,14.940922 0.85500339,12.6725763 1.32282712,10.4828475 C1.80290169,8.23574237 2.91975593,6.18482712 4.55255593,4.55202712 C9.20620339,-0.101620339 16.7781966,-0.101620339 21.4318441,4.55202712 C23.6480136,6.76828475 24.8886102,9.71421695 24.9250102,12.8473492 C24.9614102,15.9747525 23.7959051,18.9442169 21.6433695,21.2085966 C21.6178983,21.2353898 21.5926915,21.2623593 21.5674847,21.2893288 C21.5228881,21.3370102 21.4783797,21.3847797 21.4318441,21.4313153 C16.7781966,26.0849627 9.20620339,26.0849627 4.55255593,21.4313153 C4.52778983,21.4065492 4.50364068,21.3813424 4.47975593,21.3561356 C4.47852203,21.3073085 4.47746441,21.2591864 4.47746441,21.2117695 C4.47746441,21.1053017 4.47949153,20.9992746 4.48336949,20.8936 C4.48469153,20.8582576 4.48733559,20.8232678 4.48909831,20.7880136 C4.49253559,20.7177695 4.49579661,20.6475254 4.50090847,20.5776339 C4.50399322,20.5359458 4.50848814,20.4946983 4.51218983,20.4531864 C4.51774237,20.3901695 4.52294237,20.3271525 4.52981695,20.2644881 C4.53466441,20.2202441 4.54101017,20.1763525 4.54656271,20.1322847 C4.55405424,20.0727932 4.56119322,20.0131254 4.57000678,19.9538983 C4.57670508,19.9087729 4.58463729,19.8640881 4.59204068,19.8192271 C4.60147119,19.7614983 4.61063729,19.7037695 4.62130169,19.6463932 C4.62967458,19.6010034 4.63928136,19.5560542 4.64844746,19.5109288 C4.65981695,19.4546102 4.67101017,19.3982034 4.68352542,19.3422373 C4.69366102,19.2968475 4.70494237,19.251722 4.71578305,19.2065966 C4.72900339,19.1515119 4.74213559,19.0964271 4.75641356,19.0417831 C4.76831186,18.9964814 4.78117966,18.9515322 4.79369492,18.9064949 C4.8087661,18.8525559 4.82374915,18.7985288 4.83987797,18.7449424 C4.85336271,18.6999932 4.86781695,18.6553966 4.88209492,18.6108 C4.89901695,18.5578305 4.91593898,18.5047729 4.93383051,18.4522441 C4.94898983,18.4079119 4.96485424,18.3638441 4.98071864,18.3197763 C4.99949153,18.2676 5.01835254,18.2154237 5.03809492,18.1636 C5.05484068,18.1197966 5.07220339,18.0764339 5.08965424,18.0329831 C5.11018983,17.9817763 5.13090169,17.9305695 5.15240678,17.8798034 C5.17073898,17.8366169 5.1896,17.7937831 5.20863729,17.7509492 C5.23093559,17.7006237 5.25349831,17.6504746 5.2767661,17.600678 C5.29659661,17.5582847 5.3168678,17.5161559 5.33740339,17.4741153 C5.36155254,17.4246712 5.3859661,17.3753153 5.41099661,17.3264 C5.43223729,17.2849763 5.45383051,17.2437288 5.47577627,17.2026576 C5.50168814,17.1540068 5.52804068,17.1055322 5.55492203,17.057322 C5.57757288,17.0167797 5.60048814,16.9764136 5.62375593,16.9363119 C5.65143051,16.8886305 5.67954576,16.8412136 5.70818983,16.7939729 C5.73225085,16.7543119 5.75657627,16.7148271 5.78125424,16.6755186 C5.81069153,16.6288068 5.84056949,16.5823593 5.87088814,16.5362644 C5.89627119,16.4975729 5.92183051,16.4590576 5.94783051,16.4208068 C5.97894237,16.3749763 6.01075932,16.3296746 6.04284068,16.284461 C6.06954576,16.2468271 6.09625085,16.2092814 6.12357288,16.1721763 C6.15644746,16.1274034 6.19002712,16.0830712 6.22378305,16.0390034 C6.25172203,16.0025153 6.27957288,15.9660271 6.30812881,15.9299797 C6.3427661,15.8861763 6.37819661,15.8429017 6.41371525,15.7998034 C6.44271186,15.7645492 6.47170847,15.7292949 6.50132203,15.6944814 C6.53781017,15.6516475 6.57509153,15.6094305 6.61246102,15.5673017 C6.64260339,15.5332814 6.67256949,15.4991729 6.70324068,15.4656814 C6.74149153,15.4239051 6.78053559,15.382922 6.8196678,15.341939 C6.8508678,15.3091525 6.88189153,15.276278 6.91362034,15.2439322 C6.95372203,15.2032136 6.99470508,15.1633763 7.0356,15.1233627 C7.06768136,15.0920746 7.09949831,15.0604339 7.13210847,15.0295864 C7.17423729,14.9897492 7.21733559,14.9508814 7.26025763,14.9119254 C7.29304407,14.8822237 7.32538983,14.8521695 7.35861695,14.8229085 C7.40294915,14.7838644 7.44842712,14.7459661 7.49364068,14.7078034 C7.52677966,14.6798644 7.5595661,14.6514847 7.59314576,14.6239864 C7.63994576,14.5857356 7.68789153,14.5486305 7.73566102,14.511261 C7.76897627,14.485261 7.80176271,14.4586441 7.83543051,14.4330847 C7.88575593,14.394922 7.93713898,14.3580814 7.9884339,14.3210644 C8.02077966,14.2976203 8.05250847,14.2736475 8.08529492,14.2506441 C8.14187797,14.2108949 8.19978305,14.1725559 8.25751186,14.1340407 C8.28597966,14.1150915 8.31383051,14.0954373 8.34247458,14.0767525 C8.41774237,14.0278373 8.4943322,13.9805085 8.57145085,13.9337966 C8.58343729,13.9265695 8.59507119,13.9188136 8.60714576,13.9115864 C8.69633898,13.8581763 8.7867661,13.8063525 8.87825085,13.755939 C8.90953898,13.7387525 8.94170847,13.7226237 8.97334915,13.7057898 C9.03407458,13.6733559 9.09462373,13.6406576 9.15640678,13.6096339 C9.19597966,13.5897153 9.23652203,13.5710305 9.27644746,13.5517288 C9.32686102,13.5273153 9.37709831,13.5026373 9.42812881,13.4791051 C10.3866034,14.3946576 11.6651864,14.9129831 12.9923322,14.9129831 C14.319478,14.9129831 15.5981492,14.3945695 16.5566237,13.4789288 C18.4276542,14.344861 19.9590102,15.8986034 20.7903932,17.7880542 C20.9079661,18.0552814 21.219878,18.1768203 21.4873695,18.0591593 C21.7546847,17.9414983 21.8760475,17.6294102 21.7583864,17.3621831 C20.8490034,15.2954034 19.2658237,13.6438305 17.2618847,12.6468407 C17.8433153,11.7939525 18.1578712,10.7868271 18.1578712,9.7475322 C18.1578712,6.89925424 15.8406102,4.58199322 12.9923322,4.58199322 C12.700339,4.58199322 12.4635186,4.81881356 12.4635186,5.11080678 C12.4635186,5.4028 12.700339,5.63962034 12.9923322,5.63962034 C15.2575051,5.63962034 17.1002441,7.48244746 17.1002441,9.7475322 C17.1002441,10.7603864 16.7238169,11.7356949 16.0404136,12.4935729 C16.0403254,12.493661 16.0402373,12.4937492 16.0401492,12.4938373 C15.2597966,13.3591525 14.1489356,13.8554441 12.9922441,13.8554441 C11.8355525,13.8554441 10.7246034,13.3591525 9.94433898,12.4938373 C9.94425085,12.493661 9.94407458,12.4935729 9.94389831,12.4934847 C9.26058305,11.7353424 8.88424407,10.7602983 8.88424407,9.74762034 C8.88424407,8.64204746 9.31707797,7.6048678 10.1030712,6.82733559 C10.3107186,6.62189153 10.3124814,6.28706441 10.1070373,6.07950508 C9.90168136,5.87176949 9.56685424,5.87018305 9.35920678,6.07545085 C8.37094237,7.05287458 7.82661695,8.35701695 7.82661695,9.7472678 C7.82661695,10.7855051 8.14037966,11.7919254 8.72084068,12.6443729 C8.71564068,12.6469288 8.71061695,12.6497492 8.70550508,12.6523932 C8.66425763,12.6730169 8.62397966,12.6948746 8.58308475,12.715939 C8.52042034,12.7483729 8.45757966,12.7806305 8.39579661,12.8143864 C8.35208136,12.8381831 8.30933559,12.8632136 8.26606102,12.8876271 C8.2083322,12.9203254 8.15051525,12.9528475 8.09357966,12.9866034 C8.04942373,13.0128678 8.00597288,13.0400136 7.96225763,13.0668949 C7.90761356,13.1005627 7.85296949,13.1341424 7.79911864,13.1687797 C7.75513898,13.1970712 7.71195254,13.2261559 7.66850169,13.2550644 C7.61623729,13.289878 7.56406102,13.3248678 7.51258983,13.3606508 C7.46931525,13.3907932 7.42656949,13.4215525 7.38382373,13.4523119 C7.33358644,13.4885356 7.28352542,13.5249356 7.23408136,13.5620407 C7.19168814,13.5938576 7.14982373,13.6261153 7.10804746,13.6585492 C7.05957288,13.6961831 7.01145085,13.7340814 6.96385763,13.7725966 C6.92261017,13.8059119 6.88171525,13.8396678 6.84099661,13.8736 C6.79419661,13.9127322 6.74774915,13.9523051 6.70174237,13.9923186 C6.66181695,14.0269559 6.62215593,14.0618576 6.58284746,14.0972 C6.53745763,14.1380068 6.49268475,14.1792542 6.44817627,14.2208542 C6.40974915,14.2567254 6.37141017,14.2926847 6.33351186,14.329261 C6.2895322,14.3717424 6.24625763,14.4148407 6.20307119,14.4581153 C6.16623051,14.4950441 6.12938983,14.5318847 6.09325424,14.5693424 C6.05050847,14.6136746 6.00855593,14.6588 5.96669153,14.7039254 C5.93170169,14.7416475 5.89644746,14.7791932 5.86207458,14.8175322 C5.82021017,14.8640678 5.77949153,14.9115729 5.73859661,14.9589017 C5.70572203,14.9969763 5.67258305,15.0346983 5.64032542,15.0732136 C5.59881356,15.1228339 5.55862373,15.1734237 5.51816949,15.2238373 C5.48811525,15.2613831 5.45744407,15.2984 5.42791864,15.3363864 C5.38543729,15.3910305 5.3443661,15.4467322 5.30311864,15.5022576 C5.27720678,15.5371593 5.25058983,15.5714441 5.22520678,15.6066983 C5.17303051,15.6789695 5.12252881,15.7522983 5.0724678,15.8259797 C5.05933559,15.8453695 5.04541017,15.8642305 5.0323661,15.8837085 C4.97005424,15.9767797 4.90950508,16.0709085 4.85054237,16.1660949 C4.83018305,16.1989695 4.81105763,16.2325492 4.79113898,16.2656 C4.75297627,16.3289695 4.71463729,16.3922508 4.67788475,16.4565017 C4.65496949,16.4966034 4.63328814,16.5374102 4.61098983,16.5778644 C4.57882034,16.6360339 4.54647458,16.6940271 4.51562712,16.7529017 C4.49271186,16.7965288 4.47103051,16.8406847 4.4487322,16.8846644 C4.42,16.9414237 4.39117966,16.9980949 4.36359322,17.0554712 C4.34164746,17.1011254 4.32075932,17.1473085 4.29951864,17.1932271 C4.27343051,17.2498983 4.24725424,17.3064814 4.22222373,17.3636814 C4.2016,17.4108339 4.18185763,17.4584271 4.16202712,17.5059322 C4.13814237,17.5629559 4.1144339,17.6199797 4.09169492,17.6774441 C4.07256949,17.7257424 4.05423729,17.7743051 4.03590508,17.8228678 C4.01422373,17.8805085 3.99280678,17.9382373 3.97218305,17.9963186 C3.9547322,18.0455864 3.93781017,18.0951186 3.92106441,18.144739 C3.90141017,18.2029966 3.88228475,18.2614305 3.86377627,18.3202169 C3.848,18.3701898 3.83275254,18.420339 3.81776949,18.4705763 C3.80014237,18.5298915 3.7831322,18.5893831 3.76665085,18.649139 C3.75272542,18.6995525 3.73906441,18.7500542 3.7259322,18.8008203 C3.7103322,18.8611932 3.69552542,18.9218305 3.68107119,18.9826441 C3.66899661,19.0334102 3.65701017,19.0840881 3.64581695,19.1350305 C3.63224407,19.1966373 3.61964068,19.2585966 3.60730169,19.3206441 C3.5971661,19.3714102 3.58685424,19.4221763 3.57751186,19.4732068 C3.5659661,19.5364881 3.5555661,19.600122 3.54525424,19.6638441 C3.53714576,19.7140814 3.52859661,19.7642305 3.52128136,19.8146441 C3.51167458,19.8803932 3.5035661,19.9464949 3.49528136,20.0125966 C3.4892,20.0616 3.48250169,20.1105153 3.47712542,20.1596949 C3.46954576,20.2289695 3.46372881,20.2986847 3.45764746,20.3684 C3.45359322,20.4148475 3.44874576,20.4611186 3.44539661,20.5078305 C3.43975593,20.5856542 3.43605424,20.6638305 3.43226441,20.7420949 C3.43041356,20.7809627 3.42750508,20.8195661 3.42609492,20.858522 C3.42186441,20.9759186 3.41948475,21.0937559 3.41948475,21.2120339 C3.41948475,21.3397424 3.42380339,21.4604881 3.42900339,21.5938373 C3.43023729,21.6246847 3.43455593,21.6546508 3.44072542,21.6839119 C3.44125424,21.6862034 3.44151864,21.6884949 3.44204746,21.6907864 C3.44856949,21.7196068 3.45773559,21.7472814 3.46875254,21.7740746 C3.46981017,21.7767186 3.47077966,21.7793627 3.47192542,21.7820068 C3.48329492,21.8084475 3.4968678,21.8336542 3.51220339,21.8576271 C3.51414237,21.8606237 3.51599322,21.8636203 3.5179322,21.8665288 C3.53370847,21.890061 3.55124746,21.9121831 3.57037288,21.9328068 C3.57178305,21.9343051 3.57275254,21.9361559 3.57416271,21.9376542 L3.6439661,22.0119525 C3.69667119,22.0683593 3.74937627,22.1245898 3.80437288,22.1794983 C6.33738983,24.7125153 9.66459661,25.9790237 12.9918915,25.9790237 C16.3191864,25.9790237 19.6463932,24.7125153 22.1794102,22.1794983 C22.2344068,22.1245898 22.2871119,22.0682712 22.3398169,22.0119525 L22.4096203,21.9376542 C24.7530576,19.4724136 26.0218576,16.2399525 25.9822847,12.8354508 C25.9428881,9.42416271 24.5922983,6.21690847 22.1796746,3.80428475 Z"></path>
                    </g>
                </g>
            </g>
        </g>
    </g>
</svg>