<?xml version="1.0" encoding="UTF-8"?>
<svg width="20px" height="18px" viewBox="0 0 20 18" version="1.1" xmlns="http://www.w3.org/2000/svg" xmlns:xlink="http://www.w3.org/1999/xlink">
    <!-- Generator: Sketch 45.2 (43514) - http://www.bohemiancoding.com/sketch -->
    <title>Rectangle 3</title>
    <desc>Created with Sketch.</desc>
    <defs></defs>
    <g id="Page-1" stroke="none" stroke-width="1" fill="none" fill-rule="evenodd">
        <g id="view" transform="translate(-331.000000, -320.000000)" fill="#FBC400">
            <g id="container" transform="translate(134.000000, 248.000000)">
                <path d="M199.049189,74.573568 C199.386058,74.1487092 199.634402,73.8605073 199.794222,73.7089622 C200.213034,73.3118364 200.604494,73.0994357 200.846227,72.945374 C200.983895,72.8576357 201.479579,72.5992098 202.022819,72.4325272 C202.508332,72.2835571 203.037842,72.221689 203.287321,72.198851 C204.084304,72.1258933 205.063677,72.288834 205.829642,72.626131 C206.252375,72.8122838 206.653314,73.0090853 206.914393,73.190171 C207.151434,73.3545844 207.26586,73.5127263 207.315069,73.5118124 C207.409143,73.5100655 207.7372,73.1611626 208.271882,72.8846554 C208.883099,72.5685685 209.745876,72.3134337 210.519318,72.198851 C210.679777,72.1750797 211.303757,72.2080784 211.513765,72.2313993 C211.616427,72.2427997 211.83769,72.2576981 212.064858,72.2976048 C212.302392,72.3393326 212.545791,72.4064229 212.639086,72.4325272 C212.731421,72.4583626 212.996671,72.5529699 213.245615,72.6685705 C213.488761,72.7814792 213.716202,72.9153724 213.764102,72.945374 C213.836471,72.9907024 213.986997,73.0745422 214.156505,73.190171 C214.264706,73.2639796 214.370047,73.3545889 214.502198,73.4438843 C214.585384,73.5000942 214.718605,73.6021315 214.90186,73.7499964 C215.229472,74.0607971 215.453851,74.2921226 215.574997,74.443973 C215.937475,74.8983218 216.099725,75.3261987 216.235908,75.6029782 C216.606423,76.3560151 216.752844,77.1958353 216.752844,77.8235644 C216.752844,78.2801663 216.705759,79.1815051 216.235908,80.2767478 C215.919559,81.0141708 215.24412,81.8334544 214.256473,82.8384276 C213.882001,83.2194691 213.219538,83.8516068 212.269085,84.7348408 C209.288635,87.8067621 207.706926,89.3751279 207.523957,89.4399382 C207.508196,89.4455207 207.405958,89.4697565 207.315069,89.4724483 C207.263717,89.4739691 207.160089,89.4793138 207.113456,89.4399382 C206.783131,89.1610192 203.86421,86.1966435 203.452326,85.8163945 C203.317009,85.691471 200.69159,83.0878426 200.346367,82.7260932 C200.073508,82.440171 199.605192,82.0354525 199.162944,81.4543727 C198.976222,81.2090337 198.69945,80.7279045 198.332628,80.0109852 C198.126082,79.2671199 198.015206,78.7120808 198,78.3458677 C197.989956,78.1039686 197.872738,77.4028542 198.17064,76.3740155 C198.237142,76.1443447 198.358606,75.7857128 198.57688,75.3367676 C198.654693,75.1767207 198.81213,74.9223208 199.049189,74.573568 Z" id="Rectangle-3"></path>
            </g>
        </g>
    </g>
</svg>