<?xml version="1.0" encoding="UTF-8"?>
<svg width="21px" height="22px" viewBox="0 0 21 22" version="1.1" xmlns="http://www.w3.org/2000/svg" xmlns:xlink="http://www.w3.org/1999/xlink">
    <!-- Generator: Sketch 45.2 (43514) - http://www.bohemiancoding.com/sketch -->
    <title>search</title>
    <desc>Created with Sketch.</desc>
    <defs></defs>
    <g id="Page-1" stroke="none" stroke-width="1" fill="none" fill-rule="evenodd">
        <g id="view" transform="translate(-26.000000, -139.000000)" fill-rule="nonzero" fill="#AEACAC">
            <g id="search" transform="translate(0.000000, 126.000000)">
                <g transform="translate(26.000000, 13.000000)" id="Shape">
                    <path d="M20.9658134,20.7910442 L14.9405345,14.5249001 C16.4773678,12.9836063 17.4294746,10.8588023 17.4294746,8.51543557 C17.4294746,3.8197811 13.6096935,0 8.91403906,0 C4.21838458,0 0.398603484,3.8197811 0.398603484,8.51543557 C0.398603484,13.21109 4.21838458,17.0308711 8.91403906,17.0308711 C10.97518,17.0308711 12.8668231,16.2940832 14.34121,15.07151 L20.3810868,21.3530629 C20.4605642,21.4361898 20.5668044,21.4775505 20.6734501,21.4775505 C20.7748243,21.4775505 20.8757931,21.4398393 20.9544595,21.3644169 C21.1158472,21.2091115 21.1207132,20.952432 20.9658134,20.7910442 Z M8.91403906,16.2198773 C4.6656477,16.2198773 1.20959735,12.7638269 1.20959735,8.51543557 C1.20959735,4.26704422 4.6656477,0.810993864 8.91403906,0.810993864 C13.1624304,0.810993864 16.6184808,4.26704422 16.6184808,8.51543557 C16.6184808,12.7638269 13.1620249,16.2198773 8.91403906,16.2198773 Z"></path>
                </g>
            </g>
        </g>
    </g>
</svg>